:FULLY-SPECIFIED
:FORCE-ALL-JOINTS-BE-3DOF
:DEGREES
356
root 9.27889 16.8761 14.1596 5.89207 7.95872 -2.33673
lfemur -12.5726 7.07532 -13.5351
ltibia 53.8357 0 0
lfoot 2.16529 6.80244 0
ltoes -8.34507 0 0
rfemur -25.247 3.46032 27.6115
rtibia 37.9525 0 0
rfoot -15.0125 3.23935 0
rtoes -12.8423 0 0
lowerback -5.7393 -2.2457 -1.05048
upperback -1.25944 -3.0034 3.14964
thorax 2.18462 -1.51085 3.58703
lowerneck -19.9945 -5.86847 -12.9363
upperneck 20.9966 -7.66819 13.6703
head 11.1784 -2.95777 5.99312
lclavicle 5.72016e-15 4.32032e-15 0
lhumerus -37.5748 -18.7335 100.024
lradius 24.9759 0 0
lwrist 6.35927 0 0
lhand -12.5231 -22.2714 0
lfingers 7.12502 0 0
lthumb 13.5523 7.25662 0
rclavicle 5.72016e-15 4.32032e-15 0
rhumerus -40.2133 10.9438 -82.3613
rradius 37.2672 0 0
rwrist -19.8656 0 0
rhand -30.1194 -24.2022 0
rfingers 7.12502 0 0
rthumb -3.43268 -54.1525 0
357
root 9.27912 16.8918 14.2787 5.90907 7.70346 -2.36333
lfemur -14.1842 7.04374 -13.9028
ltibia 54.2834 0 0
lfoot 0.985853 7.15204 0
ltoes -7.91695 0 0
rfemur -24.5775 3.64181 27.7197
rtibia 37.5595 0 0
rfoot -15.3896 3.22885 0
rtoes -12.9568 0 0
lowerback -5.71767 -2.07725 -0.982884
upperback -1.22693 -2.7812 3.11448
thorax 2.18527 -1.39983 3.52984
lowerneck -20.0005 -5.89715 -12.8948
upperneck 21.0328 -7.70266 13.5864
head 11.1925 -2.979 5.9488
lclavicle 5.24843e-15 5.0683e-15 0
lhumerus -38.208 -18.7128 99.8727
lradius 25.1998 0 0
lwrist 6.79251 0 0
lhand -12.7106 -22.2469 0
lfingers 7.12502 0 0
lthumb 13.3715 7.29323 0
rclavicle 5.24843e-15 5.0683e-15 0
rhumerus -39.7373 11.5008 -82.4682
rradius 37.8175 0 0
rwrist -20.1538 0 0
rhand -30.2157 -24.1939 0
rfingers 7.12502 0 0
rthumb -3.52572 -54.1426 0
358
root 9.27987 16.9074 14.397 5.9273 7.44364 -2.38867
lfemur -15.7979 7.00568 -14.2761
ltibia 54.6911 0 0
lfoot -0.211956 7.50157 0
ltoes -7.48547 0 0
rfemur -23.8976 3.82957 27.8181
rtibia 37.1428 0 0
rfoot -15.7716 3.2092 0
rtoes -13.0747 0 0
lowerback -5.69833 -1.90743 -0.91609
upperback -1.19346 -2.55711 3.07904
thorax 2.18832 -1.28791 3.47292
lowerneck -20.0058 -5.92562 -12.8532
upperneck 21.0696 -7.73667 13.5014
head 11.2066 -3.00016 5.90412
lclavicle 4.7303e-15 5.81338e-15 0
lhumerus -38.837 -18.6979 99.7158
lradius 25.4322 0 0
lwrist 7.23255 0 0
lhand -12.8964 -22.2235 0
lfingers 7.12502 0 0
lthumb 13.1924 7.32852 0
rclavicle 4.7303e-15 5.81338e-15 0
rhumerus -39.2593 12.0576 -82.5763
rradius 38.3672 0 0
rwrist -20.4404 0 0
rhand -30.3104 -24.185 0
rfingers 7.12502 0 0
rthumb -3.61716 -54.1322 0
359
root 9.28112 16.9228 14.5147 5.94654 7.18033 -2.41348
lfemur -17.4071 6.96092 -14.6512
ltibia 55.0575 0 0
lfoot -1.42012 7.8497 0
ltoes -7.05451 0 0
rfemur -23.2072 4.02178 27.9083
rtibia 36.7033 0 0
rfoot -16.1543 3.18237 0
rtoes -13.1944 0 0
lowerback -5.68139 -1.73678 -0.84982
upperback -1.15919 -2.33193 3.04373
thorax 2.19375 -1.17549 3.41651
lowerneck -20.0105 -5.95376 -12.8119
upperneck 21.1067 -7.77007 13.4159
head 11.2205 -3.02117 5.85941
lclavicle 4.17707e-15 6.54688e-15 0
lhumerus -39.4606 -18.687 99.5543
lradius 25.6705 0 0
lwrist 7.67577 0 0
lhand -13.0793 -22.2019 0
lfingers 7.12502 0 0
lthumb 13.0162 7.36188 0
rclavicle 4.17707e-15 6.54688e-15 0
rhumerus -38.7808 12.6112 -82.685
rradius 38.9131 0 0
rwrist -20.7234 0 0
rhand -30.4031 -24.1754 0
rfingers 7.12502 0 0
rthumb -3.70667 -54.1211 0
360
root 9.28283 16.938 14.632 5.9666 6.91458 -2.43851
lfemur -19.005 6.90922 -15.024
ltibia 55.3814 0 0
lfoot -2.6306 8.19505 0
ltoes -6.62793 0 0
rfemur -22.5067 4.21664 27.9918
rtibia 36.242 0 0
rfoot -16.5335 3.15034 0
rtoes -13.3142 0 0
lowerback -5.66699 -1.56587 -0.783793
upperback -1.12425 -2.10648 3.00893
thorax 2.20154 -1.06296 3.36084
lowerneck -20.0144 -5.98145 -12.7713
upperneck 21.1437 -7.80274 13.3304
head 11.2342 -3.0419 5.81499
lclavicle 3.60006e-15 7.2601e-15 0
lhumerus -40.0773 -18.6778 99.3896
lradius 25.9124 0 0
lwrist 8.11858 0 0
lhand -13.258 -22.1825 0
lfingers 7.12502 0 0
lthumb 12.8439 7.39274 0
rclavicle 3.60006e-15 7.2601e-15 0
rhumerus -38.3034 13.1585 -82.7939
rradius 39.4522 0 0
rwrist -21.001 0 0
rhand -30.4934 -24.1647 0
rfingers 7.12502 0 0
rthumb -3.79391 -54.1088 0
361
root 9.28498 16.9528 14.7492 5.98724 6.64747 -2.46452
lfemur -20.5851 6.85035 -15.3906
ltibia 55.6615 0 0
lfoot -3.83539 8.53627 0
ltoes -6.20959 0 0
rfemur -21.7962 4.41233 28.0703
rtibia 35.7601 0 0
rfoot -16.9051 3.11507 0
rtoes -13.4325 0 0
lowerback -5.65524 -1.39526 -0.717727
upperback -1.08881 -1.88157 2.97507
thorax 2.21168 -0.950721 3.30615
lowerneck -20.0176 -6.00857 -12.7317
upperneck 21.1804 -7.83455 13.2458
head 11.2476 -3.06228 5.77117
lclavicle 3.01057e-15 7.94437e-15 0
lhumerus -40.6859 -18.6684 99.2232
lradius 26.1554 0 0
lwrist 8.55735 0 0
lhand -13.4313 -22.1659 0
lfingers 7.12502 0 0
lthumb 12.6769 7.42048 0
rclavicle 3.01057e-15 7.94437e-15 0
rhumerus -37.8288 13.6965 -82.9024
rradius 39.9811 0 0
rwrist -21.2712 0 0
rhand -30.581 -24.1525 0
rfingers 7.12502 0 0
rthumb -3.87852 -54.0952 0
362
root 9.28755 16.9673 14.8664 6.00828 6.38004 -2.49224
lfemur -22.1405 6.78405 -15.7473
ltibia 55.8966 0 0
lfoot -5.02646 8.87201 0
ltoes -5.80338 0 0
rfemur -21.0757 4.60705 28.1452
rtibia 35.2587 0 0
rfoot -17.2647 3.07854 0
rtoes -13.5478 0 0
lowerback -5.64627 -1.22552 -0.651341
upperback -1.05302 -1.658 2.94253
thorax 2.22416 -0.839159 3.25267
lowerneck -20.02 -6.03501 -12.6934
upperneck 21.2165 -7.86537 13.1625
head 11.2606 -3.08218 5.72828
lclavicle 2.41992e-15 8.59099e-15 0
lhumerus -41.285 -18.6567 99.0565
lradius 26.3969 0 0
lwrist 8.98849 0 0
lhand -13.5979 -22.1526 0
lfingers 7.12502 0 0
lthumb 12.5164 7.44451 0
rclavicle 2.41992e-15 8.59099e-15 0
rhumerus -37.3587 14.222 -83.0098
rradius 40.4966 0 0
rwrist -21.5321 0 0
rhand -30.6656 -24.1387 0
rfingers 7.12502 0 0
rthumb -3.96016 -54.08 0
363
root 9.29051 16.9811 14.9838 6.02948 6.11337 -2.52244
lfemur -23.6647 6.7101 -16.09
ltibia 56.0855 0 0
lfoot -6.19579 9.20091 0
ltoes -5.41314 0 0
rfemur -20.3456 4.79898 28.2182
rtibia 34.7386 0 0
rfoot -17.6084 3.04272 0
rtoes -13.6583 0 0
lowerback -5.64021 -1.0572 -0.584354
upperback -1.01702 -1.4366 2.91174
thorax 2.23895 -0.728671 3.20063
lowerneck -20.0215 -6.06065 -12.6568
upperneck 21.2517 -7.89506 13.0813
head 11.2731 -3.10151 5.68664
lclavicle 1.83942e-15 9.19128e-15 0
lhumerus -41.8734 -18.6406 98.8908
lradius 26.6346 0 0
lwrist 9.40837 0 0
lhand -13.7565 -22.1431 0
lfingers 7.12502 0 0
lthumb 12.3635 7.46423 0
rclavicle 1.83942e-15 9.19128e-15 0
rhumerus -36.8946 14.7322 -83.1158
rradius 40.9956 0 0
rwrist -21.7819 0 0
rhand -30.7467 -24.1229 0
rfingers 7.12502 0 0
rthumb -4.03849 -54.0628 0
364
root 9.29382 16.9944 15.1016 6.05065 5.84852 -2.55584
lfemur -25.1509 6.62826 -16.4148
ltibia 56.227 0 0
lfoot -7.33535 9.52161 0
ltoes -5.04275 0 0
rfemur -19.6058 4.98631 28.2908
rtibia 34.2011 0 0
rfoot -17.9317 3.0096 0
rtoes -13.7626 0 0
lowerback -5.63718 -0.890864 -0.516486
upperback -0.980981 -1.21817 2.88309
thorax 2.25606 -0.619652 3.15028
lowerneck -20.0223 -6.08535 -12.6222
upperneck 21.2857 -7.9235 13.0028
head 11.285 -3.12016 5.64656
lclavicle 1.28037e-15 9.73654e-15 0
lhumerus -42.4495 -18.6181 98.7275
lradius 26.8659 0 0
lwrist 9.8134 0 0
lhand -13.9058 -22.1378 0
lfingers 7.12502 0 0
lthumb 12.2196 7.47904 0
rclavicle 1.28037e-15 9.73654e-15 0
rhumerus -36.4381 15.224 -83.2196
rradius 41.4748 0 0
rwrist -22.0187 0 0
rhand -30.824 -24.1048 0
rfingers 7.12502 0 0
rthumb -4.11317 -54.0433 0
